<?xml version="1.0" encoding="utf-8"?>
<!-- Generator: Adobe Illustrator 24.1.3, SVG Export Plug-In . SVG Version: 6.00 Build 0)  -->
<svg version="1.1" id="Layer_1" xmlns="http://www.w3.org/2000/svg" xmlns:xlink="http://www.w3.org/1999/xlink" x="0px" y="0px"
	 viewBox="0 0 1920 722" style="enable-background:new 0 0 1920 722;" xml:space="preserve">
<style type="text/css">
	.st0{fill:#FFFFFF;}
</style>
<g>
	<path class="st0" d="M894.6,485.7c-9.7,14.3-21.5,26.1-36.1,35c-18.8,11.5-39.5,16.8-61.3,18.7c-21.3,1.8-42.4,0.7-62.8-5.9
		c-46.1-14.9-75.2-46-86-93.1c-9.9-43.2-2.2-83.4,26.3-118c29.3-35.5,67.7-51.5,113.5-47.2c54.5,5.2,91.5,34.1,110.6,85.4
		c8.1,21.9,8.2,44.7,5.5,67.9c-63.3,0-126.4,0-189.9,0c3.5,14.4,10,26.4,20.8,35.9c15.6,13.6,34.1,17.6,54.2,16.3
		c4.8-0.3,9.5-1.1,14.2-2.1c14-3,24.9-10.7,32.8-22.7c1.3-1.9,2.5-3.9,3.8-5.8c0.1-0.1,0.2-0.1,0.8-0.3
		C858.6,461.6,876.4,473.6,894.6,485.7z M838.6,381.7c-5.7-30-27-56.1-67.4-53.2c-34.2,2.4-53.3,27.5-57.4,53.2
		C755.3,381.7,796.8,381.7,838.6,381.7z"/>
	<path class="st0" d="M1176.7,485.7c-9.7,14.3-21.5,26.1-36.1,35c-18.8,11.5-39.5,16.8-61.3,18.7c-21.3,1.8-42.4,0.7-62.8-5.9
		c-46.1-14.9-75.2-46-86-93.1c-9.9-43.2-2.2-83.4,26.3-118c29.3-35.5,67.7-51.5,113.5-47.2c54.5,5.2,91.5,34.1,110.6,85.4
		c7.9,21.3,8.4,45.2,5.3,67.9c-63.1,0-126.2,0-189.7,0c3.5,14.4,10,26.4,20.8,35.9c15.6,13.6,34.1,17.6,54.2,16.3
		c4.8-0.3,9.5-1.1,14.2-2.1c14-3,24.9-10.7,32.8-22.7c1.3-2,2.6-4.1,4.1-6.4C1140.7,461.6,1158.6,473.6,1176.7,485.7z M995.7,381.7
		c41.8,0,83.3,0,124.9,0c-4.8-28-25.1-53.1-60.5-53.4C1023.7,328,1001.4,351.5,995.7,381.7z"/>
	<path class="st0" d="M1679.2,449.5c18.1,12.1,35.9,24,54.1,36.2c-5.1,8.1-11.3,15.1-18.2,21.5c-19.1,17.7-42,27.1-67.5,30.8
		c-27.9,4.1-55.4,3.1-82-7.1c-44.8-17.2-71.2-50.3-79.9-97.1c-6.6-35-1.4-68.6,18.4-98.6c28.8-43.6,69.9-63.8,122.1-60.1
		c33.4,2.3,62.1,15.5,84.7,40.5c24.8,27.3,35.2,59.8,33.4,96.4c-0.3,5.4-0.7,10.8-1.1,16.6c-63.5,0-126.6,0-190.2,0
		c5.1,20,15.5,35.5,33.8,44.5c20.9,10.4,42.7,10.4,64.5,2.6c10.1-3.6,17.7-10.7,23.6-19.6C1676.3,454.1,1677.6,452,1679.2,449.5z
		 M1552.5,381.6c41.6,0,83.2,0,124.8,0c-5.4-29.8-26.7-53.6-61.9-53.3C1578.4,328.6,1557.4,353.6,1552.5,381.6z"/>
	<path class="st0" d="M1212,280.1c21.9,0,43.5,0,65.1,0c0.5,0,1,0.1,1.8,0.2c0,7.3,0,14.5,0,22.3c1.1-0.6,1.8-0.9,2.3-1.3
		c24-21.9,52.6-29.5,84.4-27.3c19.2,1.3,36.9,7.1,52.4,18.9c19.7,14.9,30.6,35.2,34.8,59.2c1.3,7.4,1.8,14.9,1.8,22.4
		c0.2,51.7,0.1,103.3,0.1,155c0,1.2-0.1,2.4-0.2,3.8c-23.5,0-46.8,0-70.5,0c0-1.8,0-3.4,0-5c0-46.5,0-92.9,0-139.4
		c0-11.6-2-22.6-8.8-32.2c-9.6-13.6-23.4-19.3-39.6-19.5c-20.9-0.3-37.4,7.8-47.7,26.6c-3.7,6.7-4.9,14.1-4.9,21.7
		c0.1,47.6,0,95.1,0,142.7c0,1.6,0,3.2,0,5.1c-23.8,0-47.2,0-71,0C1212,449.1,1212,364.8,1212,280.1z"/>
	<path class="st0" d="M271.2,432.3c21.3,8.6,42.1,16.9,63.3,25.4c-3.1,10.8-8.1,20.5-14.6,29.3c-23.4,31.7-55.3,48.4-94.1,52.3
		c-31.9,3.2-61.9-2.8-88.9-20.3C103,497,83.6,465.5,78.5,425.6c-4.8-37.7,3.7-72.4,27.6-102.3c23.1-29,53.8-44.4,90.4-48.1
		c27.6-2.8,54,1.6,78.6,14.7c27.3,14.6,47.1,36,57.3,65.6c0.2,0.5,0.3,1,0.5,2.2c-21,8.3-42,16.6-63.1,24.9
		c-1.3-3.5-2.5-6.9-3.9-10.1c-14.3-32.3-46.9-40.2-74-31.2c-25.1,8.3-38.1,27.4-42,52.7c-2.8,17.8-0.9,35.3,8.2,51.2
		c13.9,24,35.5,33.7,62.5,30.8c24.8-2.7,41-17,49.3-40.4C270.4,434.7,270.7,433.8,271.2,432.3z"/>
	<path class="st0" d="M638.6,471.4v61.6c-0.1,0.1-0.4,0.4-0.6,0.4c-22.1-0.4-44.3,1.8-66.2-2.2c-36.2-6.7-60.8-31-67.4-67.5
		c-1.7-9.1-2.4-18.5-2.4-27.7c-0.3-29.9-0.1-59.9-0.1-89.8v-5.4h-43v-60.7c6.4,0,12.7,0,18.9,0c2.9,0,5.7,0,8.6-0.5
		c11.9-2,18.8-9.2,19.4-21.3c0.2-5.2,0.4-10.4,0.4-15.5h69.2v37.2h61.4v60.8h-63.5c-0.1,1.6-0.2,2.9-0.2,4.2
		c0,28.2-0.1,56.3,0.1,84.5c0,4.9,0.5,9.9,1.6,14.6c3.6,16.3,15.3,26.4,32,27.2c9,0.4,18.1,0.2,27.1,0.3H638.6z"/>
	<path class="st0" d="M1772.1,181.8c23.7,0,47,0,70.7,0c0,117.2,0,234.2,0,351.5c-23.5,0-46.9,0-70.7,0
		C1772.1,416.3,1772.1,299.2,1772.1,181.8z"/>
	<path class="st0" d="M430.9,280.3c0,84.5,0,168.6,0,253c-23.6,0-47.1,0-70.8,0c0-84.3,0-168.6,0-253
		C383.7,280.3,407.1,280.3,430.9,280.3z"/>
</g>
</svg>
